<?xml version="1.0" standalone="no"?>
<!DOCTYPE svg PUBLIC "-//W3C//DTD SVG 20010904//EN"
 "http://www.w3.org/TR/2001/REC-SVG-20010904/DTD/svg10.dtd">
<svg version="1.0" xmlns="http://www.w3.org/2000/svg"
 width="260.000000pt" height="260.000000pt" viewBox="0 0 260.000000 260.000000"
 preserveAspectRatio="xMidYMid meet">
<metadata>
Created by potrace 1.11, written by Peter Selinger 2001-2013
</metadata>
<g transform="translate(0.000000,260.000000) scale(0.100000,-0.100000)"
fill="#000000" stroke="none">
<path d="M426 2590 c-178 -22 -278 -90 -328 -226 -18 -48 -22 -81 -22 -179 -1
-180 37 -267 146 -339 99 -65 127 -69 571 -74 l397 -4 0 -44 0 -44 -539 0
c-529 0 -539 0 -565 -21 -22 -17 -26 -28 -26 -69 0 -41 4 -52 27 -69 l26 -21
1188 2 c1349 3 1224 -6 1224 88 0 91 42 85 -590 88 l-555 2 0 44 0 44 403 4
c451 5 478 8 577 76 99 67 140 166 140 338 0 174 -46 279 -151 341 -116 69
-82 67 -1014 69 -462 1 -871 -2 -909 -6z m1816 -247 c25 -11 51 -30 57 -41 6
-12 11 -68 11 -127 0 -101 -1 -107 -26 -130 -53 -49 -65 -50 -1004 -50 -938 0
-936 0 -986 50 -22 23 -24 31 -24 138 0 108 1 115 25 137 51 47 78 49 1020 47
878 -2 880 -2 927 -24z"/>
<path d="M309 2261 c-20 -16 -24 -29 -24 -74 0 -40 5 -61 19 -76 l19 -21 962
0 c959 0 962 0 981 21 26 28 26 120 0 148 -19 21 -22 21 -976 21 -928 0 -959
-1 -981 -19z"/>
<path d="M362 1409 c-136 -18 -227 -62 -267 -129 -15 -27 -20 -52 -20 -112 0
-69 3 -80 30 -120 37 -51 87 -82 175 -104 54 -14 136 -18 488 -21 l422 -5 0
-38 0 -38 -422 -4 c-395 -4 -428 -6 -502 -26 -120 -33 -178 -87 -192 -180 -11
-74 11 -143 59 -191 65 -65 102 -72 402 -82 321 -10 325 -11 325 -49 0 -53
-11 -54 -413 -58 -361 -4 -367 -4 -382 -25 -8 -12 -15 -43 -15 -68 0 -107 7
-109 322 -109 454 1 621 38 679 152 29 57 29 150 0 210 -24 50 -63 79 -146
109 -54 20 -89 23 -345 29 -157 4 -286 8 -288 9 -2 0 -2 13 0 29 l3 27 160 7
c88 5 293 7 455 5 l295 -2 5 -285 c3 -157 7 -286 8 -286 27 -17 71 -25 104
-21 74 10 73 4 76 317 l3 280 332 -1 c183 -1 391 -4 462 -8 l130 -6 3 -27 c2
-16 2 -29 0 -29 -2 -1 -131 -5 -288 -9 -303 -8 -338 -14 -426 -65 -107 -63
-118 -266 -18 -344 84 -66 283 -93 652 -89 246 3 252 3 274 26 30 30 33 119 5
150 -18 20 -32 20 -380 24 -395 3 -407 5 -407 57 0 21 6 30 23 35 12 4 130 9
262 12 132 3 265 10 295 16 136 26 200 97 200 223 0 84 -24 132 -85 173 -89
59 -134 64 -607 69 l-428 5 0 39 0 39 378 0 c379 1 482 7 580 36 64 18 136 80
153 131 17 53 8 167 -17 200 -37 50 -101 91 -171 109 -62 16 -141 18 -973 20
-498 1 -933 -2 -968 -7z m1898 -197 c42 -7 45 -9 48 -39 3 -28 -1 -33 -25 -40
-37 -10 -1949 -10 -1986 0 -24 7 -28 12 -25 40 3 29 7 33 43 38 55 8 1889 9
1945 1z"/>
</g>
</svg>
